<svg xmlns="http://www.w3.org/2000/svg" width="19.889" height="24.997" viewBox="0 0 19.889 24.997"><defs><style>.a{fill:none;stroke:#434343;stroke-linecap:round;stroke-linejoin:round;stroke-width:1.5px;}</style></defs><g transform="translate(0.75 0.75)"><path class="a" d="M511.835,319h1.022a1.532,1.532,0,0,1,1.532,1.532v18.389a1.532,1.532,0,0,1-1.532,1.532H497.532A1.532,1.532,0,0,1,496,338.921V320.532A1.532,1.532,0,0,1,497.532,319h1.022" transform="translate(-496 -316.957)"/><path class="a" d="M517,318h2.687a.8.8,0,0,1,.888.817v1.226" transform="translate(-506.273 -316.467)"/><path class="a" d="M504,320.043v-1.226a.8.8,0,0,1,.888-.817h2.687" transform="translate(-499.914 -316.467)"/><line class="a" x2="10" transform="translate(4.446 3.919)"/><path class="a" d="M511,316.532a1.532,1.532,0,1,1,3.065,0" transform="translate(-503.338 -315)"/><line class="a" x2="10" transform="translate(4.446 15.919)"/><line class="a" x2="10" transform="translate(4.446 17.919)"/><line class="a" x2="5" transform="translate(4.446 19.919)"/><path class="a" d="M509,331.043l2.043,2.043L515.13,329" transform="translate(-502.36 -321.849)"/></g></svg>