<svg xmlns="http://www.w3.org/2000/svg" width="29.194" height="27.671" viewBox="0 0 29.194 27.671"><defs><style>.a{fill:none;stroke:#434343;stroke-linecap:round;stroke-linejoin:round;stroke-width:1.5px;}.b{fill:#fff;}.c{fill:#434343;}</style></defs><g transform="translate(-471.111 -564.634)"><g transform="translate(472 565.384)"><rect class="a" width="23" height="20" rx="3" transform="translate(0 3.616)"/><path class="a" d="M330,405.043v-1.022A1.021,1.021,0,0,1,331.022,403h6.13a1.021,1.021,0,0,1,1.022,1.022v1.022" transform="translate(-322.338 -403)"/><path class="a" d="M341.857,428.268c3.576-.511,10.473-2.25,10.473-2.25" transform="translate(-329.676 -414.251)"/><path class="a" d="M326.867,428.264C323.292,427.753,315,426,315,426" transform="translate(-315 -414.251)"/></g><circle class="b" cx="6" cy="6" r="6" transform="translate(488 580)"/><g transform="translate(-4380.533 1217.467)"><g transform="translate(4868 -638)"><path class="c" d="M8.669,2.25a6.419,6.419,0,1,0,6.419,6.419A6.419,6.419,0,0,0,8.669,2.25ZM5.918,13.428v-.917a1.477,1.477,0,0,1,1.376-1.55h2.751a1.477,1.477,0,0,1,1.376,1.554v.917a5.465,5.465,0,0,1-5.5,0Zm6.419-.67v-.28a2.389,2.389,0,0,0-2.293-2.434H7.294A2.384,2.384,0,0,0,5,12.479v.271a5.5,5.5,0,1,1,7.336,0Z" transform="translate(-2.25 -2.25)"/><path class="c" d="M14.668,7.875a2.293,2.293,0,1,0,2.293,2.293,2.293,2.293,0,0,0-2.293-2.293Zm0,3.668a1.376,1.376,0,1,1,1.376-1.376A1.376,1.376,0,0,1,14.668,11.543Z" transform="translate(-8.249 -5.582)"/></g><ellipse class="c" cx="1.708" cy="1.618" rx="1.708" ry="1.618" transform="translate(4872.753 -635.044)"/><path class="c" d="M4889.168-582.361c.045-.994,0-2.377,0-2.377l.886-.732h3.774l1.231.953.316,2.156a6.742,6.742,0,0,1-2.813.876C4891.074-581.37,4889.146-581.872,4889.168-582.361Z" transform="translate(-17.794 -44.155)"/></g></g></svg>