<svg xmlns="http://www.w3.org/2000/svg" width="24.83" height="25.213" viewBox="0 0 24.83 25.213"><defs><style>.a,.c{fill:none;}.a,.d{stroke:#434343;}.a{stroke-linecap:round;stroke-linejoin:round;stroke-width:1.5px;}.b,.d{fill:#434343;}.d{stroke-width:0.2px;}</style></defs><g transform="translate(-471.25 -653.585)"><g transform="translate(472 654.335)"><path class="a" d="M74.432,227v16.857H54V227" transform="translate(-52.468 -227)"/><line class="a" y1="4.666" transform="translate(11.665 16.498)"/><line class="a" y1="2.333" x2="6.221" transform="translate(5.444 21.164)"/><line class="a" x1="6.999" y1="2.333" transform="translate(11.665 21.164)"/><line class="a" x2="23.33" transform="translate(0 0.167)"/></g><g transform="translate(476.818 657.158)"><g transform="translate(0 10.407)"><path class="b" d="M935.127,1006.238a.39.39,0,0,0-.416.359.394.394,0,0,0,.426.351l12.872-.132a.391.391,0,0,0,.416-.359.4.4,0,0,0-.427-.35Z" transform="translate(-934.711 -1006.106)"/></g><g transform="translate(5.202 2.258)"><path class="c" d="M970.477,935.467a.488.488,0,0,0-.482.494l.076,6.2a.488.488,0,0,0,.494.482l2.258-.028a.488.488,0,0,0,.482-.493l-.075-6.2a.488.488,0,0,0-.494-.482Z" transform="translate(-969.995 -935.44)"/></g><g transform="translate(4.971 2.028)"><path class="d" d="M968.789,941.1a.721.721,0,0,1-.719-.71l-.075-6.2a.718.718,0,0,1,.71-.727l2.258-.028h0a.723.723,0,0,1,.727.71l.076,6.2a.718.718,0,0,1-.71.727Zm2.183-7.2-2.262.028a.257.257,0,0,0-.254.26l.076,6.2a.258.258,0,0,0,.257.254v.231l0-.231,2.258-.028a.257.257,0,0,0,.254-.26l-.075-6.2A.258.258,0,0,0,970.972,933.9Z" transform="translate(-967.995 -933.44)"/></g><g transform="translate(1.032 4.285)"><path class="c" d="M934.31,953.048a.488.488,0,0,0-.482.494l.051,4.218a.488.488,0,0,0,.494.482l2.259-.028a.488.488,0,0,0,.482-.493l-.051-4.218a.488.488,0,0,0-.494-.482Z" transform="translate(-933.828 -953.021)"/></g><g transform="translate(0.801 4.055)"><path class="d" d="M932.6,956.7a.721.721,0,0,1-.718-.709l-.051-4.218a.72.72,0,0,1,.71-.727l2.258-.027h0a.723.723,0,0,1,.727.71l.051,4.218a.719.719,0,0,1-.71.727Zm2.207-5.221-2.262.027a.258.258,0,0,0-.254.261l.051,4.218a.258.258,0,0,0,.257.254v.231l0-.231,2.259-.028a.257.257,0,0,0,.254-.26l-.051-4.218A.258.258,0,0,0,934.8,951.482Z" transform="translate(-931.828 -951.021)"/></g><g transform="translate(9.373 0.231)"><path class="c" d="M1006.646,917.884a.488.488,0,0,0-.482.494l.1,8.181a.488.488,0,0,0,.494.482l2.259-.027a.488.488,0,0,0,.482-.494l-.1-8.181a.488.488,0,0,0-.494-.482Z" transform="translate(-1006.164 -917.857)"/></g><g transform="translate(9.142 0)"><path class="d" d="M1004.981,925.5a.721.721,0,0,1-.718-.709l-.1-8.181a.72.72,0,0,1,.71-.727l2.258-.028a.723.723,0,0,1,.727.71l.1,8.181a.719.719,0,0,1-.71.727Zm2.159-9.184-2.261.028a.258.258,0,0,0-.254.26l.1,8.181a.258.258,0,0,0,.257.254v.231l0-.231,2.259-.027a.258.258,0,0,0,.254-.26l-.1-8.181A.258.258,0,0,0,1007.14,916.319Z" transform="translate(-1004.164 -915.858)"/></g></g></g></svg>